<svg xmlns="http://www.w3.org/2000/svg" x="0px" y="0px" width="100" height="100" viewBox="0 0 64 64">
<line x1="31.753" x2="18.753" y1="30.5" y2="30.5" fill="none" stroke="#9c34c2" stroke-linecap="round" stroke-linejoin="round" stroke-miterlimit="10" stroke-width="5"></line><polyline fill="none" stroke="#9c34c2" stroke-linecap="round" stroke-linejoin="round" stroke-miterlimit="10" stroke-width="5" points="49.003,49 31.753,30.528 49.003,13"></polyline><ellipse cx="32.75" cy="61" opacity=".3" rx="24.5" ry="3"></ellipse><circle cx="15.003" cy="31" r="8" fill="#98c900"></circle><path fill="none" stroke="#fff" stroke-linecap="round" stroke-linejoin="round" stroke-miterlimit="10" stroke-width="3" d="M10.503,31c0-2.481,2.019-4.5,4.5-4.5"></path><path fill="#fff" d="M15.003,23c-4.418,0-8,3.582-8,8c0,1.771,0.583,3.402,1.557,4.728	c1.994-0.657,3.443-2.514,3.443-4.728c0-1.654,1.346-3,3-3c2.214,0,4.071-1.449,4.728-3.443C18.405,23.583,16.774,23,15.003,23z" opacity=".3"></path><circle cx="49.003" cy="13" r="8" fill="#98c900"></circle><circle cx="49.003" cy="49" r="8" fill="#98c900"></circle><path d="M49.003,57c4.418,0,8-3.582,8-8c0-1.771-0.583-3.402-1.557-4.728	c-1.994,0.657-3.443,2.514-3.443,4.728c0,1.654-1.346,3-3,3c-2.214,0-4.071,1.449-4.728,3.443C45.6,56.417,47.232,57,49.003,57z" opacity=".15"></path>
</svg>